<?xml version="1.0" encoding="utf-8" standalone="no"?>
<!DOCTYPE svg PUBLIC "-//W3C//DTD SVG 1.1//EN"
  "http://www.w3.org/Graphics/SVG/1.1/DTD/svg11.dtd">
<!-- Created with matplotlib (https://matplotlib.org/) -->
<svg height="288pt" version="1.1" viewBox="0 0 432 288" width="432pt" xmlns="http://www.w3.org/2000/svg" xmlns:xlink="http://www.w3.org/1999/xlink">
 <defs>
  <style type="text/css">
*{stroke-linecap:butt;stroke-linejoin:round;}
  </style>
 </defs>
 <g id="figure_1">
  <g id="patch_1">
   <path d="M 0 288 
L 432 288 
L 432 0 
L 0 0 
z
" style="fill:#ffffff;"/>
  </g>
  <g id="axes_1">
   <g id="patch_2">
    <path d="M 54 252 
L 388.8 252 
L 388.8 34.56 
L 54 34.56 
z
" style="fill:#ffffff;"/>
   </g>
   <g id="matplotlib.axis_1">
    <g id="xtick_1">
     <g id="line2d_1">
      <defs>
       <path d="M 0 0 
L 0 3.5 
" id="mded5a9f2a8" style="stroke:#000000;stroke-width:0.8;"/>
      </defs>
      <g>
       <use style="stroke:#000000;stroke-width:0.8;" x="70.373209" xlink:href="#mded5a9f2a8" y="252"/>
      </g>
     </g>
     <g id="text_1">
      <!-- −5 -->
      <defs>
       <path d="M 10.59375 35.5 
L 73.1875 35.5 
L 73.1875 27.203125 
L 10.59375 27.203125 
z
" id="DejaVuSans-8722"/>
       <path d="M 10.796875 72.90625 
L 49.515625 72.90625 
L 49.515625 64.59375 
L 19.828125 64.59375 
L 19.828125 46.734375 
Q 21.96875 47.46875 24.109375 47.828125 
Q 26.265625 48.1875 28.421875 48.1875 
Q 40.625 48.1875 47.75 41.5 
Q 54.890625 34.8125 54.890625 23.390625 
Q 54.890625 11.625 47.5625 5.09375 
Q 40.234375 -1.421875 26.90625 -1.421875 
Q 22.3125 -1.421875 17.546875 -0.640625 
Q 12.796875 0.140625 7.71875 1.703125 
L 7.71875 11.625 
Q 12.109375 9.234375 16.796875 8.0625 
Q 21.484375 6.890625 26.703125 6.890625 
Q 35.15625 6.890625 40.078125 11.328125 
Q 45.015625 15.765625 45.015625 23.390625 
Q 45.015625 31 40.078125 35.4375 
Q 35.15625 39.890625 26.703125 39.890625 
Q 22.75 39.890625 18.8125 39.015625 
Q 14.890625 38.140625 10.796875 36.28125 
z
" id="DejaVuSans-53"/>
      </defs>
      <g transform="translate(63.002115 266.598437)scale(0.1 -0.1)">
       <use xlink:href="#DejaVuSans-8722"/>
       <use x="83.789062" xlink:href="#DejaVuSans-53"/>
      </g>
     </g>
    </g>
    <g id="xtick_2">
     <g id="line2d_2">
      <g>
       <use style="stroke:#000000;stroke-width:0.8;" x="118.690644" xlink:href="#mded5a9f2a8" y="252"/>
      </g>
     </g>
     <g id="text_2">
      <!-- 0 -->
      <defs>
       <path d="M 31.78125 66.40625 
Q 24.171875 66.40625 20.328125 58.90625 
Q 16.5 51.421875 16.5 36.375 
Q 16.5 21.390625 20.328125 13.890625 
Q 24.171875 6.390625 31.78125 6.390625 
Q 39.453125 6.390625 43.28125 13.890625 
Q 47.125 21.390625 47.125 36.375 
Q 47.125 51.421875 43.28125 58.90625 
Q 39.453125 66.40625 31.78125 66.40625 
z
M 31.78125 74.21875 
Q 44.046875 74.21875 50.515625 64.515625 
Q 56.984375 54.828125 56.984375 36.375 
Q 56.984375 17.96875 50.515625 8.265625 
Q 44.046875 -1.421875 31.78125 -1.421875 
Q 19.53125 -1.421875 13.0625 8.265625 
Q 6.59375 17.96875 6.59375 36.375 
Q 6.59375 54.828125 13.0625 64.515625 
Q 19.53125 74.21875 31.78125 74.21875 
z
" id="DejaVuSans-48"/>
      </defs>
      <g transform="translate(115.509394 266.598437)scale(0.1 -0.1)">
       <use xlink:href="#DejaVuSans-48"/>
      </g>
     </g>
    </g>
    <g id="xtick_3">
     <g id="line2d_3">
      <g>
       <use style="stroke:#000000;stroke-width:0.8;" x="167.008079" xlink:href="#mded5a9f2a8" y="252"/>
      </g>
     </g>
     <g id="text_3">
      <!-- 5 -->
      <g transform="translate(163.826829 266.598437)scale(0.1 -0.1)">
       <use xlink:href="#DejaVuSans-53"/>
      </g>
     </g>
    </g>
    <g id="xtick_4">
     <g id="line2d_4">
      <g>
       <use style="stroke:#000000;stroke-width:0.8;" x="215.325513" xlink:href="#mded5a9f2a8" y="252"/>
      </g>
     </g>
     <g id="text_4">
      <!-- 10 -->
      <defs>
       <path d="M 12.40625 8.296875 
L 28.515625 8.296875 
L 28.515625 63.921875 
L 10.984375 60.40625 
L 10.984375 69.390625 
L 28.421875 72.90625 
L 38.28125 72.90625 
L 38.28125 8.296875 
L 54.390625 8.296875 
L 54.390625 0 
L 12.40625 0 
z
" id="DejaVuSans-49"/>
      </defs>
      <g transform="translate(208.963013 266.598437)scale(0.1 -0.1)">
       <use xlink:href="#DejaVuSans-49"/>
       <use x="63.623047" xlink:href="#DejaVuSans-48"/>
      </g>
     </g>
    </g>
    <g id="xtick_5">
     <g id="line2d_5">
      <g>
       <use style="stroke:#000000;stroke-width:0.8;" x="263.642948" xlink:href="#mded5a9f2a8" y="252"/>
      </g>
     </g>
     <g id="text_5">
      <!-- 15 -->
      <g transform="translate(257.280448 266.598437)scale(0.1 -0.1)">
       <use xlink:href="#DejaVuSans-49"/>
       <use x="63.623047" xlink:href="#DejaVuSans-53"/>
      </g>
     </g>
    </g>
    <g id="xtick_6">
     <g id="line2d_6">
      <g>
       <use style="stroke:#000000;stroke-width:0.8;" x="311.960383" xlink:href="#mded5a9f2a8" y="252"/>
      </g>
     </g>
     <g id="text_6">
      <!-- 20 -->
      <defs>
       <path d="M 19.1875 8.296875 
L 53.609375 8.296875 
L 53.609375 0 
L 7.328125 0 
L 7.328125 8.296875 
Q 12.9375 14.109375 22.625 23.890625 
Q 32.328125 33.6875 34.8125 36.53125 
Q 39.546875 41.84375 41.421875 45.53125 
Q 43.3125 49.21875 43.3125 52.78125 
Q 43.3125 58.59375 39.234375 62.25 
Q 35.15625 65.921875 28.609375 65.921875 
Q 23.96875 65.921875 18.8125 64.3125 
Q 13.671875 62.703125 7.8125 59.421875 
L 7.8125 69.390625 
Q 13.765625 71.78125 18.9375 73 
Q 24.125 74.21875 28.421875 74.21875 
Q 39.75 74.21875 46.484375 68.546875 
Q 53.21875 62.890625 53.21875 53.421875 
Q 53.21875 48.921875 51.53125 44.890625 
Q 49.859375 40.875 45.40625 35.40625 
Q 44.1875 33.984375 37.640625 27.21875 
Q 31.109375 20.453125 19.1875 8.296875 
z
" id="DejaVuSans-50"/>
      </defs>
      <g transform="translate(305.597883 266.598437)scale(0.1 -0.1)">
       <use xlink:href="#DejaVuSans-50"/>
       <use x="63.623047" xlink:href="#DejaVuSans-48"/>
      </g>
     </g>
    </g>
    <g id="xtick_7">
     <g id="line2d_7">
      <g>
       <use style="stroke:#000000;stroke-width:0.8;" x="360.277818" xlink:href="#mded5a9f2a8" y="252"/>
      </g>
     </g>
     <g id="text_7">
      <!-- 25 -->
      <g transform="translate(353.915318 266.598437)scale(0.1 -0.1)">
       <use xlink:href="#DejaVuSans-50"/>
       <use x="63.623047" xlink:href="#DejaVuSans-53"/>
      </g>
     </g>
    </g>
    <g id="text_8">
     <!-- value -->
     <defs>
      <path d="M 2.984375 54.6875 
L 12.5 54.6875 
L 29.59375 8.796875 
L 46.6875 54.6875 
L 56.203125 54.6875 
L 35.6875 0 
L 23.484375 0 
z
" id="DejaVuSans-118"/>
      <path d="M 34.28125 27.484375 
Q 23.390625 27.484375 19.1875 25 
Q 14.984375 22.515625 14.984375 16.5 
Q 14.984375 11.71875 18.140625 8.90625 
Q 21.296875 6.109375 26.703125 6.109375 
Q 34.1875 6.109375 38.703125 11.40625 
Q 43.21875 16.703125 43.21875 25.484375 
L 43.21875 27.484375 
z
M 52.203125 31.203125 
L 52.203125 0 
L 43.21875 0 
L 43.21875 8.296875 
Q 40.140625 3.328125 35.546875 0.953125 
Q 30.953125 -1.421875 24.3125 -1.421875 
Q 15.921875 -1.421875 10.953125 3.296875 
Q 6 8.015625 6 15.921875 
Q 6 25.140625 12.171875 29.828125 
Q 18.359375 34.515625 30.609375 34.515625 
L 43.21875 34.515625 
L 43.21875 35.40625 
Q 43.21875 41.609375 39.140625 45 
Q 35.0625 48.390625 27.6875 48.390625 
Q 23 48.390625 18.546875 47.265625 
Q 14.109375 46.140625 10.015625 43.890625 
L 10.015625 52.203125 
Q 14.9375 54.109375 19.578125 55.046875 
Q 24.21875 56 28.609375 56 
Q 40.484375 56 46.34375 49.84375 
Q 52.203125 43.703125 52.203125 31.203125 
z
" id="DejaVuSans-97"/>
      <path d="M 9.421875 75.984375 
L 18.40625 75.984375 
L 18.40625 0 
L 9.421875 0 
z
" id="DejaVuSans-108"/>
      <path d="M 8.5 21.578125 
L 8.5 54.6875 
L 17.484375 54.6875 
L 17.484375 21.921875 
Q 17.484375 14.15625 20.5 10.265625 
Q 23.53125 6.390625 29.59375 6.390625 
Q 36.859375 6.390625 41.078125 11.03125 
Q 45.3125 15.671875 45.3125 23.6875 
L 45.3125 54.6875 
L 54.296875 54.6875 
L 54.296875 0 
L 45.3125 0 
L 45.3125 8.40625 
Q 42.046875 3.421875 37.71875 1 
Q 33.40625 -1.421875 27.6875 -1.421875 
Q 18.265625 -1.421875 13.375 4.4375 
Q 8.5 10.296875 8.5 21.578125 
z
M 31.109375 56 
z
" id="DejaVuSans-117"/>
      <path d="M 56.203125 29.59375 
L 56.203125 25.203125 
L 14.890625 25.203125 
Q 15.484375 15.921875 20.484375 11.0625 
Q 25.484375 6.203125 34.421875 6.203125 
Q 39.59375 6.203125 44.453125 7.46875 
Q 49.3125 8.734375 54.109375 11.28125 
L 54.109375 2.78125 
Q 49.265625 0.734375 44.1875 -0.34375 
Q 39.109375 -1.421875 33.890625 -1.421875 
Q 20.796875 -1.421875 13.15625 6.1875 
Q 5.515625 13.8125 5.515625 26.8125 
Q 5.515625 40.234375 12.765625 48.109375 
Q 20.015625 56 32.328125 56 
Q 43.359375 56 49.78125 48.890625 
Q 56.203125 41.796875 56.203125 29.59375 
z
M 47.21875 32.234375 
Q 47.125 39.59375 43.09375 43.984375 
Q 39.0625 48.390625 32.421875 48.390625 
Q 24.90625 48.390625 20.390625 44.140625 
Q 15.875 39.890625 15.1875 32.171875 
z
" id="DejaVuSans-101"/>
     </defs>
     <g transform="translate(207.742188 280.276563)scale(0.1 -0.1)">
      <use xlink:href="#DejaVuSans-118"/>
      <use x="59.179688" xlink:href="#DejaVuSans-97"/>
      <use x="120.458984" xlink:href="#DejaVuSans-108"/>
      <use x="148.242188" xlink:href="#DejaVuSans-117"/>
      <use x="211.621094" xlink:href="#DejaVuSans-101"/>
     </g>
    </g>
   </g>
   <g id="matplotlib.axis_2">
    <g id="ytick_1">
     <g id="line2d_8">
      <defs>
       <path d="M 0 0 
L -3.5 0 
" id="m96f4fb9f0e" style="stroke:#000000;stroke-width:0.8;"/>
      </defs>
      <g>
       <use style="stroke:#000000;stroke-width:0.8;" x="54" xlink:href="#m96f4fb9f0e" y="242.309021"/>
      </g>
     </g>
     <g id="text_9">
      <!-- 0 -->
      <g transform="translate(40.6375 246.108239)scale(0.1 -0.1)">
       <use xlink:href="#DejaVuSans-48"/>
      </g>
     </g>
    </g>
    <g id="ytick_2">
     <g id="line2d_9">
      <g>
       <use style="stroke:#000000;stroke-width:0.8;" x="54" xlink:href="#m96f4fb9f0e" y="203.77761"/>
      </g>
     </g>
     <g id="text_10">
      <!-- 200 -->
      <g transform="translate(27.9125 207.576829)scale(0.1 -0.1)">
       <use xlink:href="#DejaVuSans-50"/>
       <use x="63.623047" xlink:href="#DejaVuSans-48"/>
       <use x="127.246094" xlink:href="#DejaVuSans-48"/>
      </g>
     </g>
    </g>
    <g id="ytick_3">
     <g id="line2d_10">
      <g>
       <use style="stroke:#000000;stroke-width:0.8;" x="54" xlink:href="#m96f4fb9f0e" y="165.246199"/>
      </g>
     </g>
     <g id="text_11">
      <!-- 400 -->
      <defs>
       <path d="M 37.796875 64.3125 
L 12.890625 25.390625 
L 37.796875 25.390625 
z
M 35.203125 72.90625 
L 47.609375 72.90625 
L 47.609375 25.390625 
L 58.015625 25.390625 
L 58.015625 17.1875 
L 47.609375 17.1875 
L 47.609375 0 
L 37.796875 0 
L 37.796875 17.1875 
L 4.890625 17.1875 
L 4.890625 26.703125 
z
" id="DejaVuSans-52"/>
      </defs>
      <g transform="translate(27.9125 169.045418)scale(0.1 -0.1)">
       <use xlink:href="#DejaVuSans-52"/>
       <use x="63.623047" xlink:href="#DejaVuSans-48"/>
       <use x="127.246094" xlink:href="#DejaVuSans-48"/>
      </g>
     </g>
    </g>
    <g id="ytick_4">
     <g id="line2d_11">
      <g>
       <use style="stroke:#000000;stroke-width:0.8;" x="54" xlink:href="#m96f4fb9f0e" y="126.714788"/>
      </g>
     </g>
     <g id="text_12">
      <!-- 600 -->
      <defs>
       <path d="M 33.015625 40.375 
Q 26.375 40.375 22.484375 35.828125 
Q 18.609375 31.296875 18.609375 23.390625 
Q 18.609375 15.53125 22.484375 10.953125 
Q 26.375 6.390625 33.015625 6.390625 
Q 39.65625 6.390625 43.53125 10.953125 
Q 47.40625 15.53125 47.40625 23.390625 
Q 47.40625 31.296875 43.53125 35.828125 
Q 39.65625 40.375 33.015625 40.375 
z
M 52.59375 71.296875 
L 52.59375 62.3125 
Q 48.875 64.0625 45.09375 64.984375 
Q 41.3125 65.921875 37.59375 65.921875 
Q 27.828125 65.921875 22.671875 59.328125 
Q 17.53125 52.734375 16.796875 39.40625 
Q 19.671875 43.65625 24.015625 45.921875 
Q 28.375 48.1875 33.59375 48.1875 
Q 44.578125 48.1875 50.953125 41.515625 
Q 57.328125 34.859375 57.328125 23.390625 
Q 57.328125 12.15625 50.6875 5.359375 
Q 44.046875 -1.421875 33.015625 -1.421875 
Q 20.359375 -1.421875 13.671875 8.265625 
Q 6.984375 17.96875 6.984375 36.375 
Q 6.984375 53.65625 15.1875 63.9375 
Q 23.390625 74.21875 37.203125 74.21875 
Q 40.921875 74.21875 44.703125 73.484375 
Q 48.484375 72.75 52.59375 71.296875 
z
" id="DejaVuSans-54"/>
      </defs>
      <g transform="translate(27.9125 130.514007)scale(0.1 -0.1)">
       <use xlink:href="#DejaVuSans-54"/>
       <use x="63.623047" xlink:href="#DejaVuSans-48"/>
       <use x="127.246094" xlink:href="#DejaVuSans-48"/>
      </g>
     </g>
    </g>
    <g id="ytick_5">
     <g id="line2d_12">
      <g>
       <use style="stroke:#000000;stroke-width:0.8;" x="54" xlink:href="#m96f4fb9f0e" y="88.183377"/>
      </g>
     </g>
     <g id="text_13">
      <!-- 800 -->
      <defs>
       <path d="M 31.78125 34.625 
Q 24.75 34.625 20.71875 30.859375 
Q 16.703125 27.09375 16.703125 20.515625 
Q 16.703125 13.921875 20.71875 10.15625 
Q 24.75 6.390625 31.78125 6.390625 
Q 38.8125 6.390625 42.859375 10.171875 
Q 46.921875 13.96875 46.921875 20.515625 
Q 46.921875 27.09375 42.890625 30.859375 
Q 38.875 34.625 31.78125 34.625 
z
M 21.921875 38.8125 
Q 15.578125 40.375 12.03125 44.71875 
Q 8.5 49.078125 8.5 55.328125 
Q 8.5 64.0625 14.71875 69.140625 
Q 20.953125 74.21875 31.78125 74.21875 
Q 42.671875 74.21875 48.875 69.140625 
Q 55.078125 64.0625 55.078125 55.328125 
Q 55.078125 49.078125 51.53125 44.71875 
Q 48 40.375 41.703125 38.8125 
Q 48.828125 37.15625 52.796875 32.3125 
Q 56.78125 27.484375 56.78125 20.515625 
Q 56.78125 9.90625 50.3125 4.234375 
Q 43.84375 -1.421875 31.78125 -1.421875 
Q 19.734375 -1.421875 13.25 4.234375 
Q 6.78125 9.90625 6.78125 20.515625 
Q 6.78125 27.484375 10.78125 32.3125 
Q 14.796875 37.15625 21.921875 38.8125 
z
M 18.3125 54.390625 
Q 18.3125 48.734375 21.84375 45.5625 
Q 25.390625 42.390625 31.78125 42.390625 
Q 38.140625 42.390625 41.71875 45.5625 
Q 45.3125 48.734375 45.3125 54.390625 
Q 45.3125 60.0625 41.71875 63.234375 
Q 38.140625 66.40625 31.78125 66.40625 
Q 25.390625 66.40625 21.84375 63.234375 
Q 18.3125 60.0625 18.3125 54.390625 
z
" id="DejaVuSans-56"/>
      </defs>
      <g transform="translate(27.9125 91.982596)scale(0.1 -0.1)">
       <use xlink:href="#DejaVuSans-56"/>
       <use x="63.623047" xlink:href="#DejaVuSans-48"/>
       <use x="127.246094" xlink:href="#DejaVuSans-48"/>
      </g>
     </g>
    </g>
    <g id="ytick_6">
     <g id="line2d_13">
      <g>
       <use style="stroke:#000000;stroke-width:0.8;" x="54" xlink:href="#m96f4fb9f0e" y="49.651967"/>
      </g>
     </g>
     <g id="text_14">
      <!-- 1000 -->
      <g transform="translate(21.55 53.451185)scale(0.1 -0.1)">
       <use xlink:href="#DejaVuSans-49"/>
       <use x="63.623047" xlink:href="#DejaVuSans-48"/>
       <use x="127.246094" xlink:href="#DejaVuSans-48"/>
       <use x="190.869141" xlink:href="#DejaVuSans-48"/>
      </g>
     </g>
    </g>
    <g id="text_15">
     <!-- cum_count -->
     <defs>
      <path d="M 48.78125 52.59375 
L 48.78125 44.1875 
Q 44.96875 46.296875 41.140625 47.34375 
Q 37.3125 48.390625 33.40625 48.390625 
Q 24.65625 48.390625 19.8125 42.84375 
Q 14.984375 37.3125 14.984375 27.296875 
Q 14.984375 17.28125 19.8125 11.734375 
Q 24.65625 6.203125 33.40625 6.203125 
Q 37.3125 6.203125 41.140625 7.25 
Q 44.96875 8.296875 48.78125 10.40625 
L 48.78125 2.09375 
Q 45.015625 0.34375 40.984375 -0.53125 
Q 36.96875 -1.421875 32.421875 -1.421875 
Q 20.0625 -1.421875 12.78125 6.34375 
Q 5.515625 14.109375 5.515625 27.296875 
Q 5.515625 40.671875 12.859375 48.328125 
Q 20.21875 56 33.015625 56 
Q 37.15625 56 41.109375 55.140625 
Q 45.0625 54.296875 48.78125 52.59375 
z
" id="DejaVuSans-99"/>
      <path d="M 52 44.1875 
Q 55.375 50.25 60.0625 53.125 
Q 64.75 56 71.09375 56 
Q 79.640625 56 84.28125 50.015625 
Q 88.921875 44.046875 88.921875 33.015625 
L 88.921875 0 
L 79.890625 0 
L 79.890625 32.71875 
Q 79.890625 40.578125 77.09375 44.375 
Q 74.3125 48.1875 68.609375 48.1875 
Q 61.625 48.1875 57.5625 43.546875 
Q 53.515625 38.921875 53.515625 30.90625 
L 53.515625 0 
L 44.484375 0 
L 44.484375 32.71875 
Q 44.484375 40.625 41.703125 44.40625 
Q 38.921875 48.1875 33.109375 48.1875 
Q 26.21875 48.1875 22.15625 43.53125 
Q 18.109375 38.875 18.109375 30.90625 
L 18.109375 0 
L 9.078125 0 
L 9.078125 54.6875 
L 18.109375 54.6875 
L 18.109375 46.1875 
Q 21.1875 51.21875 25.484375 53.609375 
Q 29.78125 56 35.6875 56 
Q 41.65625 56 45.828125 52.96875 
Q 50 49.953125 52 44.1875 
z
" id="DejaVuSans-109"/>
      <path d="M 50.984375 -16.609375 
L 50.984375 -23.578125 
L -0.984375 -23.578125 
L -0.984375 -16.609375 
z
" id="DejaVuSans-95"/>
      <path d="M 30.609375 48.390625 
Q 23.390625 48.390625 19.1875 42.75 
Q 14.984375 37.109375 14.984375 27.296875 
Q 14.984375 17.484375 19.15625 11.84375 
Q 23.34375 6.203125 30.609375 6.203125 
Q 37.796875 6.203125 41.984375 11.859375 
Q 46.1875 17.53125 46.1875 27.296875 
Q 46.1875 37.015625 41.984375 42.703125 
Q 37.796875 48.390625 30.609375 48.390625 
z
M 30.609375 56 
Q 42.328125 56 49.015625 48.375 
Q 55.71875 40.765625 55.71875 27.296875 
Q 55.71875 13.875 49.015625 6.21875 
Q 42.328125 -1.421875 30.609375 -1.421875 
Q 18.84375 -1.421875 12.171875 6.21875 
Q 5.515625 13.875 5.515625 27.296875 
Q 5.515625 40.765625 12.171875 48.375 
Q 18.84375 56 30.609375 56 
z
" id="DejaVuSans-111"/>
      <path d="M 54.890625 33.015625 
L 54.890625 0 
L 45.90625 0 
L 45.90625 32.71875 
Q 45.90625 40.484375 42.875 44.328125 
Q 39.84375 48.1875 33.796875 48.1875 
Q 26.515625 48.1875 22.3125 43.546875 
Q 18.109375 38.921875 18.109375 30.90625 
L 18.109375 0 
L 9.078125 0 
L 9.078125 54.6875 
L 18.109375 54.6875 
L 18.109375 46.1875 
Q 21.34375 51.125 25.703125 53.5625 
Q 30.078125 56 35.796875 56 
Q 45.21875 56 50.046875 50.171875 
Q 54.890625 44.34375 54.890625 33.015625 
z
" id="DejaVuSans-110"/>
      <path d="M 18.3125 70.21875 
L 18.3125 54.6875 
L 36.8125 54.6875 
L 36.8125 47.703125 
L 18.3125 47.703125 
L 18.3125 18.015625 
Q 18.3125 11.328125 20.140625 9.421875 
Q 21.96875 7.515625 27.59375 7.515625 
L 36.8125 7.515625 
L 36.8125 0 
L 27.59375 0 
Q 17.1875 0 13.234375 3.875 
Q 9.28125 7.765625 9.28125 18.015625 
L 9.28125 47.703125 
L 2.6875 47.703125 
L 2.6875 54.6875 
L 9.28125 54.6875 
L 9.28125 70.21875 
z
" id="DejaVuSans-116"/>
     </defs>
     <g transform="translate(15.192187 170.674531)rotate(-90)scale(0.1 -0.1)">
      <use xlink:href="#DejaVuSans-99"/>
      <use x="54.980469" xlink:href="#DejaVuSans-117"/>
      <use x="118.359375" xlink:href="#DejaVuSans-109"/>
      <use x="215.771484" xlink:href="#DejaVuSans-95"/>
      <use x="265.771484" xlink:href="#DejaVuSans-99"/>
      <use x="320.751953" xlink:href="#DejaVuSans-111"/>
      <use x="381.933594" xlink:href="#DejaVuSans-117"/>
      <use x="445.3125" xlink:href="#DejaVuSans-110"/>
      <use x="508.691406" xlink:href="#DejaVuSans-116"/>
     </g>
    </g>
   </g>
   <g id="line2d_14">
    <path clip-path="url(#pc9b1407551)" d="M 69.218182 242.116364 
L 77.978788 241.73105 
L 79.75468 241.538392 
L 88.876369 241.153078 
L 91.854025 240.960421 
L 91.967748 240.767764 
L 93.66022 240.575107 
L 93.849907 240.38245 
L 98.378013 240.189793 
L 100.471196 239.804479 
L 103.046978 239.419165 
L 106.830698 238.45588 
L 107.859181 238.263223 
L 112.515674 237.877908 
L 113.97174 237.685251 
L 114.56091 237.299937 
L 114.579047 237.10728 
L 115.796285 236.721966 
L 115.826478 236.529309 
L 117.700335 236.336652 
L 118.017538 236.143995 
L 119.138998 235.758681 
L 123.070313 235.566024 
L 123.171003 235.373367 
L 123.501547 235.18071 
L 123.587437 234.988053 
L 125.030277 234.795396 
L 125.080637 234.410081 
L 126.859915 234.217424 
L 126.978113 234.024767 
L 128.330296 233.639453 
L 128.377288 233.446796 
L 129.074844 232.676168 
L 130.125291 232.290854 
L 130.189933 232.098197 
L 130.423767 231.90554 
L 132.455493 231.327569 
L 132.587675 231.134912 
L 133.685737 230.749597 
L 134.584791 230.55694 
L 134.618658 230.171626 
L 135.205145 229.786312 
L 135.242707 229.593655 
L 136.844839 229.400998 
L 136.846804 229.208341 
L 138.676859 228.63037 
L 140.981414 228.437713 
L 141.160211 228.245056 
L 141.61172 228.052399 
L 141.741103 227.667085 
L 142.079829 227.28177 
L 142.456296 227.089113 
L 144.063321 226.896456 
L 144.70415 226.318485 
L 144.998238 226.125828 
L 146.841232 225.740514 
L 147.148734 225.547857 
L 148.049477 225.162543 
L 148.180588 224.969886 
L 148.759281 224.777229 
L 148.95824 224.199258 
L 149.020206 224.006601 
L 149.265121 223.813944 
L 149.293032 223.621286 
L 149.574396 223.428629 
L 149.64906 223.043315 
L 149.998532 222.850658 
L 150.447774 222.272687 
L 150.732573 222.08003 
L 150.77635 221.887373 
L 150.97246 221.694716 
L 151.329108 221.502059 
L 152.003479 221.309402 
L 152.224844 221.116745 
L 152.665765 220.924088 
L 153.101791 220.346117 
L 153.389775 220.153459 
L 153.902868 219.960802 
L 153.915535 219.768145 
L 154.265471 219.382831 
L 154.352453 219.190174 
L 154.606317 218.997517 
L 156.108263 218.419546 
L 156.248027 218.034232 
L 156.72793 217.648918 
L 156.913375 217.070947 
L 157.775986 216.685633 
L 158.865413 214.759062 
L 159.085308 214.181091 
L 159.489764 213.410463 
L 159.719722 213.217806 
L 159.861597 212.832491 
L 160.076565 212.447177 
L 160.113219 212.25452 
L 161.480302 211.869206 
L 161.896779 211.483892 
L 161.930558 211.291235 
L 162.831342 211.098578 
L 163.552492 210.32795 
L 163.973614 209.942636 
L 163.99133 209.749979 
L 164.181108 209.364664 
L 164.596614 208.594036 
L 165.092396 208.208722 
L 165.689352 208.016065 
L 166.582952 207.245437 
L 167.397627 207.05278 
L 167.67028 206.860123 
L 167.731031 206.667466 
L 168.362912 206.474809 
L 168.67692 205.70418 
L 169.428152 205.318866 
L 169.629856 205.126209 
L 169.862486 204.355581 
L 169.979443 203.970267 
L 170.405455 203.77761 
L 170.416281 203.584953 
L 170.555828 203.199639 
L 170.59587 203.006982 
L 170.85951 202.814325 
L 170.893991 202.621668 
L 171.787779 202.043696 
L 171.930238 201.851039 
L 171.985871 201.465725 
L 172.174043 201.273068 
L 172.222034 200.887754 
L 172.667618 200.695097 
L 172.737771 200.50244 
L 173.065684 200.117126 
L 173.737887 199.153841 
L 175.047191 198.768526 
L 175.198439 198.383212 
L 175.511063 198.190555 
L 175.520791 197.997898 
L 176.1256 197.419927 
L 176.131701 197.22727 
L 176.558038 196.841956 
L 176.642328 196.649299 
L 177.54584 196.071328 
L 177.914883 195.878671 
L 178.013173 195.686014 
L 178.627835 195.3007 
L 178.658868 195.108042 
L 179.064405 194.722728 
L 179.191873 194.337414 
L 180.000894 194.144757 
L 180.221869 193.759443 
L 180.937538 193.374129 
L 181.272408 193.181472 
L 181.28916 192.988815 
L 181.636527 192.410844 
L 181.807661 191.640215 
L 182.123632 191.447558 
L 182.212886 191.062244 
L 182.415252 190.869587 
L 182.469725 190.484273 
L 183.649011 188.365046 
L 183.964796 188.172389 
L 184.046963 187.979731 
L 184.407647 187.787074 
L 184.482467 187.40176 
L 185.09436 187.016446 
L 185.650533 186.631132 
L 186.007492 186.053161 
L 186.36946 185.089876 
L 186.727196 184.704562 
L 187.208415 184.12659 
L 187.250892 183.933933 
L 187.846863 183.548619 
L 188.175594 183.355962 
L 188.497515 182.392677 
L 189.105596 181.814706 
L 189.364131 181.236735 
L 189.814752 181.044078 
L 190.215857 180.080792 
L 190.33794 179.502821 
L 190.971156 178.539536 
L 191.233345 178.346879 
L 191.299007 178.154222 
L 191.838646 177.576251 
L 191.854767 177.383593 
L 192.19652 177.190936 
L 192.227053 176.998279 
L 192.593244 176.805622 
L 192.711797 176.612965 
L 193.046681 176.420308 
L 193.120234 176.227651 
L 193.770564 175.842337 
L 193.851673 175.457023 
L 194.187817 175.264366 
L 194.396623 174.879052 
L 194.769275 174.686395 
L 194.775876 174.493738 
L 195.498653 174.108424 
L 196.597484 173.723109 
L 196.713038 173.530452 
L 197.42673 173.145138 
L 197.479636 172.567167 
L 197.707769 172.37451 
L 197.73767 171.989196 
L 198.164607 171.796539 
L 198.484637 171.218568 
L 198.775682 170.44794 
L 199.608515 169.869968 
L 199.629149 169.677311 
L 200.071501 169.484654 
L 200.315997 168.521369 
L 200.919106 167.943398 
L 201.547179 167.750741 
L 201.726499 167.365427 
L 202.091453 166.980113 
L 202.663208 165.82417 
L 202.701164 165.631513 
L 202.930891 165.438856 
L 203.002981 165.053542 
L 203.408854 164.668228 
L 203.447194 164.475571 
L 203.681417 164.282914 
L 203.784293 163.704943 
L 204.100695 163.512286 
L 204.151555 163.126971 
L 205.319839 161.778372 
L 205.452023 161.200401 
L 205.561134 161.007744 
L 205.838581 160.815087 
L 206.173424 160.044459 
L 206.427439 159.659145 
L 206.594743 158.888516 
L 207.117582 158.503202 
L 207.37688 157.925231 
L 207.393742 157.732574 
L 207.682601 157.34726 
L 207.690029 157.154603 
L 208.128107 156.576632 
L 208.586053 155.806003 
L 208.922195 155.420689 
L 209.305852 154.07209 
L 209.321644 153.879433 
L 209.758187 153.301462 
L 209.85712 152.916148 
L 210.005956 152.530834 
L 211.082891 152.145519 
L 211.458048 151.374891 
L 212.332115 150.604263 
L 212.42014 150.218949 
L 212.641752 149.833635 
L 213.527 149.448321 
L 213.97656 148.870349 
L 213.984974 148.677692 
L 214.803001 147.329093 
L 214.928504 146.943779 
L 215.735258 145.209865 
L 215.815909 144.631894 
L 215.982164 144.439237 
L 215.985975 144.24658 
L 216.27876 143.668609 
L 216.88744 142.705324 
L 217.141984 142.512667 
L 217.17834 142.32001 
L 217.584371 141.742038 
L 217.677042 141.356724 
L 218.113953 140.393439 
L 218.173884 140.200782 
L 218.703597 139.622811 
L 218.828318 139.04484 
L 219.477444 138.274212 
L 219.553889 138.081554 
L 220.209593 137.888897 
L 220.477248 137.310926 
L 220.7157 136.925612 
L 220.798202 136.540298 
L 220.858681 136.154984 
L 222.094963 134.228413 
L 222.572677 134.035756 
L 222.726121 133.650442 
L 222.978108 133.457785 
L 223.730773 133.265128 
L 224.009548 133.072471 
L 224.075461 132.879814 
L 224.397281 132.687157 
L 224.485335 132.301843 
L 225.085892 131.916529 
L 225.106146 131.723872 
L 225.34887 131.338558 
L 225.668773 130.567929 
L 225.922492 129.989958 
L 226.033974 129.026673 
L 226.317937 128.641359 
L 226.992191 128.448702 
L 227.431476 127.485416 
L 227.490793 127.100102 
L 227.704027 126.714788 
L 228.201541 126.522131 
L 228.683099 124.788218 
L 228.815298 124.210247 
L 229.283498 123.054304 
L 229.806478 122.861647 
L 230.05299 121.898362 
L 230.457173 121.127734 
L 230.551489 120.74242 
L 230.876731 120.549763 
L 231.775946 118.237878 
L 231.946604 118.045221 
L 231.953283 117.852564 
L 232.079717 117.659907 
L 232.809399 117.081936 
L 233.037342 116.503964 
L 233.072535 116.11865 
L 233.442638 115.733336 
L 233.55822 114.962708 
L 233.938982 114.577394 
L 233.982773 114.384737 
L 234.166558 114.19208 
L 234.383568 113.421452 
L 234.864385 112.265509 
L 234.870249 112.072852 
L 235.340298 111.687538 
L 235.825852 110.724253 
L 236.55843 110.146282 
L 236.857128 109.56831 
L 237.272892 109.182996 
L 237.334241 108.797682 
L 237.736383 108.027054 
L 238.322848 107.64174 
L 238.470922 107.449083 
L 238.499005 107.063769 
L 238.642929 106.678455 
L 238.680889 106.485798 
L 239.177429 106.100483 
L 239.192814 105.907826 
L 239.391991 105.522512 
L 239.454612 105.329855 
L 239.750312 104.944541 
L 239.884454 104.751884 
L 240.655874 104.559227 
L 240.802082 104.36657 
L 241.338742 103.981256 
L 241.385788 103.788599 
L 242.048101 103.595942 
L 242.099241 103.210628 
L 242.397943 103.017971 
L 242.943614 102.825314 
L 243.213389 102.247342 
L 243.399119 101.669371 
L 243.526491 100.513429 
L 243.771665 100.128115 
L 244.282612 99.550144 
L 244.338263 99.357487 
L 244.550764 99.16483 
L 244.670114 98.779515 
L 245.961317 96.660288 
L 246.087839 96.274974 
L 246.561741 95.311688 
L 247.121033 94.926374 
L 247.164468 94.733717 
L 247.503851 94.54106 
L 247.538879 94.348403 
L 247.800489 93.963089 
L 248.145365 92.807147 
L 248.542564 92.61449 
L 248.581934 92.421833 
L 248.787638 92.229176 
L 248.874591 91.651204 
L 249.041922 91.26589 
L 249.743167 90.687919 
L 249.987793 90.109948 
L 251.487261 88.954006 
L 251.542519 88.568692 
L 252.585242 88.183377 
L 252.904413 87.605406 
L 253.296735 87.412749 
L 253.45305 86.834778 
L 253.585647 86.642121 
L 254.303258 86.06415 
L 254.398481 85.871493 
L 255.105802 85.293522 
L 255.123456 85.100865 
L 255.291542 84.908208 
L 255.303471 84.715551 
L 255.524595 84.522893 
L 255.645877 84.137579 
L 256.632165 83.752265 
L 256.774083 83.366951 
L 257.205501 82.403666 
L 258.257842 81.633038 
L 258.345527 81.440381 
L 258.892913 81.055066 
L 259.25238 80.862409 
L 259.287235 80.669752 
L 260.607615 79.899124 
L 260.754504 79.706467 
L 261.659669 79.128496 
L 262.464493 78.935839 
L 262.667063 78.743182 
L 262.687953 78.550525 
L 263.072871 77.972554 
L 263.087867 77.779897 
L 264.065766 76.816611 
L 264.217625 76.23864 
L 264.959069 76.045983 
L 265.058974 75.853326 
L 265.302363 75.660669 
L 265.341443 75.468012 
L 265.858562 75.082698 
L 266.167611 74.504727 
L 266.798071 73.926755 
L 267.602407 73.734098 
L 267.700018 73.541441 
L 268.028447 73.348784 
L 268.058654 73.156127 
L 268.814547 72.385499 
L 269.04505 72.192842 
L 269.074801 72.000185 
L 269.558431 71.229557 
L 269.565346 71.0369 
L 269.913833 70.844243 
L 270.657587 70.651586 
L 270.772446 70.458929 
L 271.679207 70.266271 
L 272.335894 69.6883 
L 273.493637 69.495643 
L 274.073121 68.532358 
L 274.859195 67.954387 
L 275.378205 67.76173 
L 275.722442 67.183759 
L 278.909613 65.642502 
L 279.188868 65.257188 
L 279.192032 65.064531 
L 280.256338 64.679217 
L 280.87473 64.293903 
L 280.997889 64.101246 
L 282.013537 63.715932 
L 282.089727 63.523275 
L 284.349231 63.330618 
L 284.889144 63.13796 
L 285.113586 62.559989 
L 285.977813 61.982018 
L 286.666891 61.789361 
L 286.778015 61.596704 
L 287.484566 61.404047 
L 287.997647 61.018733 
L 288.77395 60.826076 
L 289.066094 60.633419 
L 289.651623 60.440762 
L 290.076735 59.862791 
L 290.186024 59.477476 
L 290.94732 59.092162 
L 292.03015 58.899505 
L 292.707576 58.514191 
L 293.280911 58.321534 
L 294.376278 58.128877 
L 294.562975 57.93622 
L 295.485483 57.743563 
L 297.445774 57.550906 
L 298.019172 57.358249 
L 301.004132 56.972935 
L 301.315316 56.587621 
L 302.698636 56.202307 
L 303.582529 56.009649 
L 303.697925 55.816992 
L 303.960183 55.624335 
L 306.954856 55.431678 
L 308.525918 54.853707 
L 314.403333 53.505108 
L 314.422612 53.312451 
L 314.59786 53.119794 
L 315.296874 52.927137 
L 317.02398 52.541822 
L 322.5584 52.349165 
L 324.204934 51.963851 
L 324.469639 51.771194 
L 324.510556 51.578537 
L 326.245235 51.38588 
L 326.315288 51.193223 
L 326.698988 51.000566 
L 329.986776 50.422595 
L 330.613697 50.229938 
L 336.58243 50.037281 
L 365.574712 49.844624 
L 373.581818 49.651967 
L 373.581818 49.651967 
" style="fill:none;stroke:#1f77b4;stroke-linecap:square;stroke-width:1.5;"/>
   </g>
   <g id="line2d_15">
    <path clip-path="url(#pc9b1407551)" d="M 69.218182 240.633608 
L 79.75468 239.958133 
L 88.876369 239.160455 
L 98.378013 238.046752 
L 104.832114 237.079021 
L 110.485182 236.058229 
L 115.826478 234.918258 
L 119.138998 234.113452 
L 125.080637 232.455608 
L 130.423767 230.697534 
L 135.242707 228.863424 
L 138.676859 227.396 
L 144.243752 224.702357 
L 148.180588 222.539696 
L 152.224844 220.075038 
L 156.248027 217.360829 
L 160.113219 214.490648 
L 164.353191 211.029451 
L 168.362912 207.441405 
L 172.222034 203.689349 
L 176.131701 199.583419 
L 180.221869 194.958021 
L 184.482467 189.78573 
L 188.799849 184.188777 
L 193.548538 177.646152 
L 198.603891 170.283926 
L 204.418143 161.400058 
L 211.709391 149.827322 
L 229.283498 121.760326 
L 235.340298 112.628209 
L 239.884454 106.116226 
L 244.95005 99.264212 
L 249.280193 93.782023 
L 253.585647 88.694191 
L 257.747363 84.129617 
L 261.659669 80.157003 
L 265.99065 76.114656 
L 269.913833 72.766761 
L 274.073121 69.530317 
L 277.555289 67.056881 
L 282.013537 64.186101 
L 285.977813 61.894517 
L 290.186024 59.710502 
L 294.562975 57.688289 
L 299.515196 55.678 
L 303.960183 54.099174 
L 310.360057 52.155216 
L 315.296874 50.887411 
L 317.02398 50.486248 
L 326.315288 48.653902 
L 330.613697 47.96718 
L 336.58243 47.153159 
L 365.574712 44.793869 
L 373.581818 44.443636 
L 373.581818 44.443636 
" style="fill:none;stroke:#ff0000;stroke-linecap:square;stroke-width:1.5;"/>
   </g>
   <g id="patch_3">
    <path d="M 54 252 
L 54 34.56 
" style="fill:none;stroke:#000000;stroke-linecap:square;stroke-linejoin:miter;stroke-width:0.8;"/>
   </g>
   <g id="patch_4">
    <path d="M 388.8 252 
L 388.8 34.56 
" style="fill:none;stroke:#000000;stroke-linecap:square;stroke-linejoin:miter;stroke-width:0.8;"/>
   </g>
   <g id="patch_5">
    <path d="M 54 252 
L 388.8 252 
" style="fill:none;stroke:#000000;stroke-linecap:square;stroke-linejoin:miter;stroke-width:0.8;"/>
   </g>
   <g id="patch_6">
    <path d="M 54 34.56 
L 388.8 34.56 
" style="fill:none;stroke:#000000;stroke-linecap:square;stroke-linejoin:miter;stroke-width:0.8;"/>
   </g>
  </g>
 </g>
 <defs>
  <clipPath id="pc9b1407551">
   <rect height="217.44" width="334.8" x="54" y="34.56"/>
  </clipPath>
 </defs>
</svg>
