<?xml version="1.0" encoding="utf-8" standalone="no"?>
<!DOCTYPE svg PUBLIC "-//W3C//DTD SVG 1.1//EN"
  "http://www.w3.org/Graphics/SVG/1.1/DTD/svg11.dtd">
<!-- Created with matplotlib (https://matplotlib.org/) -->
<svg height="288pt" version="1.1" viewBox="0 0 432 288" width="432pt" xmlns="http://www.w3.org/2000/svg" xmlns:xlink="http://www.w3.org/1999/xlink">
 <defs>
  <style type="text/css">
*{stroke-linecap:butt;stroke-linejoin:round;}
  </style>
 </defs>
 <g id="figure_1">
  <g id="patch_1">
   <path d="M 0 288 
L 432 288 
L 432 0 
L 0 0 
z
" style="fill:#ffffff;"/>
  </g>
  <g id="axes_1">
   <g id="patch_2">
    <path d="M 54 252 
L 388.8 252 
L 388.8 34.56 
L 54 34.56 
z
" style="fill:#ffffff;"/>
   </g>
   <g id="matplotlib.axis_1">
    <g id="xtick_1">
     <g id="line2d_1">
      <defs>
       <path d="M 0 0 
L 0 3.5 
" id="mca43b7b12b" style="stroke:#000000;stroke-width:0.8;"/>
      </defs>
      <g>
       <use style="stroke:#000000;stroke-width:0.8;" x="70.373209" xlink:href="#mca43b7b12b" y="252"/>
      </g>
     </g>
     <g id="text_1">
      <!-- −5 -->
      <defs>
       <path d="M 10.59375 35.5 
L 73.1875 35.5 
L 73.1875 27.203125 
L 10.59375 27.203125 
z
" id="DejaVuSans-8722"/>
       <path d="M 10.796875 72.90625 
L 49.515625 72.90625 
L 49.515625 64.59375 
L 19.828125 64.59375 
L 19.828125 46.734375 
Q 21.96875 47.46875 24.109375 47.828125 
Q 26.265625 48.1875 28.421875 48.1875 
Q 40.625 48.1875 47.75 41.5 
Q 54.890625 34.8125 54.890625 23.390625 
Q 54.890625 11.625 47.5625 5.09375 
Q 40.234375 -1.421875 26.90625 -1.421875 
Q 22.3125 -1.421875 17.546875 -0.640625 
Q 12.796875 0.140625 7.71875 1.703125 
L 7.71875 11.625 
Q 12.109375 9.234375 16.796875 8.0625 
Q 21.484375 6.890625 26.703125 6.890625 
Q 35.15625 6.890625 40.078125 11.328125 
Q 45.015625 15.765625 45.015625 23.390625 
Q 45.015625 31 40.078125 35.4375 
Q 35.15625 39.890625 26.703125 39.890625 
Q 22.75 39.890625 18.8125 39.015625 
Q 14.890625 38.140625 10.796875 36.28125 
z
" id="DejaVuSans-53"/>
      </defs>
      <g transform="translate(63.002115 266.598437)scale(0.1 -0.1)">
       <use xlink:href="#DejaVuSans-8722"/>
       <use x="83.789062" xlink:href="#DejaVuSans-53"/>
      </g>
     </g>
    </g>
    <g id="xtick_2">
     <g id="line2d_2">
      <g>
       <use style="stroke:#000000;stroke-width:0.8;" x="118.690644" xlink:href="#mca43b7b12b" y="252"/>
      </g>
     </g>
     <g id="text_2">
      <!-- 0 -->
      <defs>
       <path d="M 31.78125 66.40625 
Q 24.171875 66.40625 20.328125 58.90625 
Q 16.5 51.421875 16.5 36.375 
Q 16.5 21.390625 20.328125 13.890625 
Q 24.171875 6.390625 31.78125 6.390625 
Q 39.453125 6.390625 43.28125 13.890625 
Q 47.125 21.390625 47.125 36.375 
Q 47.125 51.421875 43.28125 58.90625 
Q 39.453125 66.40625 31.78125 66.40625 
z
M 31.78125 74.21875 
Q 44.046875 74.21875 50.515625 64.515625 
Q 56.984375 54.828125 56.984375 36.375 
Q 56.984375 17.96875 50.515625 8.265625 
Q 44.046875 -1.421875 31.78125 -1.421875 
Q 19.53125 -1.421875 13.0625 8.265625 
Q 6.59375 17.96875 6.59375 36.375 
Q 6.59375 54.828125 13.0625 64.515625 
Q 19.53125 74.21875 31.78125 74.21875 
z
" id="DejaVuSans-48"/>
      </defs>
      <g transform="translate(115.509394 266.598437)scale(0.1 -0.1)">
       <use xlink:href="#DejaVuSans-48"/>
      </g>
     </g>
    </g>
    <g id="xtick_3">
     <g id="line2d_3">
      <g>
       <use style="stroke:#000000;stroke-width:0.8;" x="167.008079" xlink:href="#mca43b7b12b" y="252"/>
      </g>
     </g>
     <g id="text_3">
      <!-- 5 -->
      <g transform="translate(163.826829 266.598437)scale(0.1 -0.1)">
       <use xlink:href="#DejaVuSans-53"/>
      </g>
     </g>
    </g>
    <g id="xtick_4">
     <g id="line2d_4">
      <g>
       <use style="stroke:#000000;stroke-width:0.8;" x="215.325513" xlink:href="#mca43b7b12b" y="252"/>
      </g>
     </g>
     <g id="text_4">
      <!-- 10 -->
      <defs>
       <path d="M 12.40625 8.296875 
L 28.515625 8.296875 
L 28.515625 63.921875 
L 10.984375 60.40625 
L 10.984375 69.390625 
L 28.421875 72.90625 
L 38.28125 72.90625 
L 38.28125 8.296875 
L 54.390625 8.296875 
L 54.390625 0 
L 12.40625 0 
z
" id="DejaVuSans-49"/>
      </defs>
      <g transform="translate(208.963013 266.598437)scale(0.1 -0.1)">
       <use xlink:href="#DejaVuSans-49"/>
       <use x="63.623047" xlink:href="#DejaVuSans-48"/>
      </g>
     </g>
    </g>
    <g id="xtick_5">
     <g id="line2d_5">
      <g>
       <use style="stroke:#000000;stroke-width:0.8;" x="263.642948" xlink:href="#mca43b7b12b" y="252"/>
      </g>
     </g>
     <g id="text_5">
      <!-- 15 -->
      <g transform="translate(257.280448 266.598437)scale(0.1 -0.1)">
       <use xlink:href="#DejaVuSans-49"/>
       <use x="63.623047" xlink:href="#DejaVuSans-53"/>
      </g>
     </g>
    </g>
    <g id="xtick_6">
     <g id="line2d_6">
      <g>
       <use style="stroke:#000000;stroke-width:0.8;" x="311.960383" xlink:href="#mca43b7b12b" y="252"/>
      </g>
     </g>
     <g id="text_6">
      <!-- 20 -->
      <defs>
       <path d="M 19.1875 8.296875 
L 53.609375 8.296875 
L 53.609375 0 
L 7.328125 0 
L 7.328125 8.296875 
Q 12.9375 14.109375 22.625 23.890625 
Q 32.328125 33.6875 34.8125 36.53125 
Q 39.546875 41.84375 41.421875 45.53125 
Q 43.3125 49.21875 43.3125 52.78125 
Q 43.3125 58.59375 39.234375 62.25 
Q 35.15625 65.921875 28.609375 65.921875 
Q 23.96875 65.921875 18.8125 64.3125 
Q 13.671875 62.703125 7.8125 59.421875 
L 7.8125 69.390625 
Q 13.765625 71.78125 18.9375 73 
Q 24.125 74.21875 28.421875 74.21875 
Q 39.75 74.21875 46.484375 68.546875 
Q 53.21875 62.890625 53.21875 53.421875 
Q 53.21875 48.921875 51.53125 44.890625 
Q 49.859375 40.875 45.40625 35.40625 
Q 44.1875 33.984375 37.640625 27.21875 
Q 31.109375 20.453125 19.1875 8.296875 
z
" id="DejaVuSans-50"/>
      </defs>
      <g transform="translate(305.597883 266.598437)scale(0.1 -0.1)">
       <use xlink:href="#DejaVuSans-50"/>
       <use x="63.623047" xlink:href="#DejaVuSans-48"/>
      </g>
     </g>
    </g>
    <g id="xtick_7">
     <g id="line2d_7">
      <g>
       <use style="stroke:#000000;stroke-width:0.8;" x="360.277818" xlink:href="#mca43b7b12b" y="252"/>
      </g>
     </g>
     <g id="text_7">
      <!-- 25 -->
      <g transform="translate(353.915318 266.598437)scale(0.1 -0.1)">
       <use xlink:href="#DejaVuSans-50"/>
       <use x="63.623047" xlink:href="#DejaVuSans-53"/>
      </g>
     </g>
    </g>
    <g id="text_8">
     <!-- value -->
     <defs>
      <path d="M 2.984375 54.6875 
L 12.5 54.6875 
L 29.59375 8.796875 
L 46.6875 54.6875 
L 56.203125 54.6875 
L 35.6875 0 
L 23.484375 0 
z
" id="DejaVuSans-118"/>
      <path d="M 34.28125 27.484375 
Q 23.390625 27.484375 19.1875 25 
Q 14.984375 22.515625 14.984375 16.5 
Q 14.984375 11.71875 18.140625 8.90625 
Q 21.296875 6.109375 26.703125 6.109375 
Q 34.1875 6.109375 38.703125 11.40625 
Q 43.21875 16.703125 43.21875 25.484375 
L 43.21875 27.484375 
z
M 52.203125 31.203125 
L 52.203125 0 
L 43.21875 0 
L 43.21875 8.296875 
Q 40.140625 3.328125 35.546875 0.953125 
Q 30.953125 -1.421875 24.3125 -1.421875 
Q 15.921875 -1.421875 10.953125 3.296875 
Q 6 8.015625 6 15.921875 
Q 6 25.140625 12.171875 29.828125 
Q 18.359375 34.515625 30.609375 34.515625 
L 43.21875 34.515625 
L 43.21875 35.40625 
Q 43.21875 41.609375 39.140625 45 
Q 35.0625 48.390625 27.6875 48.390625 
Q 23 48.390625 18.546875 47.265625 
Q 14.109375 46.140625 10.015625 43.890625 
L 10.015625 52.203125 
Q 14.9375 54.109375 19.578125 55.046875 
Q 24.21875 56 28.609375 56 
Q 40.484375 56 46.34375 49.84375 
Q 52.203125 43.703125 52.203125 31.203125 
z
" id="DejaVuSans-97"/>
      <path d="M 9.421875 75.984375 
L 18.40625 75.984375 
L 18.40625 0 
L 9.421875 0 
z
" id="DejaVuSans-108"/>
      <path d="M 8.5 21.578125 
L 8.5 54.6875 
L 17.484375 54.6875 
L 17.484375 21.921875 
Q 17.484375 14.15625 20.5 10.265625 
Q 23.53125 6.390625 29.59375 6.390625 
Q 36.859375 6.390625 41.078125 11.03125 
Q 45.3125 15.671875 45.3125 23.6875 
L 45.3125 54.6875 
L 54.296875 54.6875 
L 54.296875 0 
L 45.3125 0 
L 45.3125 8.40625 
Q 42.046875 3.421875 37.71875 1 
Q 33.40625 -1.421875 27.6875 -1.421875 
Q 18.265625 -1.421875 13.375 4.4375 
Q 8.5 10.296875 8.5 21.578125 
z
M 31.109375 56 
z
" id="DejaVuSans-117"/>
      <path d="M 56.203125 29.59375 
L 56.203125 25.203125 
L 14.890625 25.203125 
Q 15.484375 15.921875 20.484375 11.0625 
Q 25.484375 6.203125 34.421875 6.203125 
Q 39.59375 6.203125 44.453125 7.46875 
Q 49.3125 8.734375 54.109375 11.28125 
L 54.109375 2.78125 
Q 49.265625 0.734375 44.1875 -0.34375 
Q 39.109375 -1.421875 33.890625 -1.421875 
Q 20.796875 -1.421875 13.15625 6.1875 
Q 5.515625 13.8125 5.515625 26.8125 
Q 5.515625 40.234375 12.765625 48.109375 
Q 20.015625 56 32.328125 56 
Q 43.359375 56 49.78125 48.890625 
Q 56.203125 41.796875 56.203125 29.59375 
z
M 47.21875 32.234375 
Q 47.125 39.59375 43.09375 43.984375 
Q 39.0625 48.390625 32.421875 48.390625 
Q 24.90625 48.390625 20.390625 44.140625 
Q 15.875 39.890625 15.1875 32.171875 
z
" id="DejaVuSans-101"/>
     </defs>
     <g transform="translate(207.742188 280.276563)scale(0.1 -0.1)">
      <use xlink:href="#DejaVuSans-118"/>
      <use x="59.179688" xlink:href="#DejaVuSans-97"/>
      <use x="120.458984" xlink:href="#DejaVuSans-108"/>
      <use x="148.242188" xlink:href="#DejaVuSans-117"/>
      <use x="211.621094" xlink:href="#DejaVuSans-101"/>
     </g>
    </g>
   </g>
   <g id="matplotlib.axis_2">
    <g id="ytick_1">
     <g id="line2d_8">
      <defs>
       <path d="M 0 0 
L -3.5 0 
" id="m0b8ad30ca2" style="stroke:#000000;stroke-width:0.8;"/>
      </defs>
      <g>
       <use style="stroke:#000000;stroke-width:0.8;" x="54" xlink:href="#m0b8ad30ca2" y="242.314234"/>
      </g>
     </g>
     <g id="text_9">
      <!-- 0 -->
      <g transform="translate(40.6375 246.113453)scale(0.1 -0.1)">
       <use xlink:href="#DejaVuSans-48"/>
      </g>
     </g>
    </g>
    <g id="ytick_2">
     <g id="line2d_9">
      <g>
       <use style="stroke:#000000;stroke-width:0.8;" x="54" xlink:href="#m0b8ad30ca2" y="202.740115"/>
      </g>
     </g>
     <g id="text_10">
      <!-- 200 -->
      <g transform="translate(27.9125 206.539333)scale(0.1 -0.1)">
       <use xlink:href="#DejaVuSans-50"/>
       <use x="63.623047" xlink:href="#DejaVuSans-48"/>
       <use x="127.246094" xlink:href="#DejaVuSans-48"/>
      </g>
     </g>
    </g>
    <g id="ytick_3">
     <g id="line2d_10">
      <g>
       <use style="stroke:#000000;stroke-width:0.8;" x="54" xlink:href="#m0b8ad30ca2" y="163.165995"/>
      </g>
     </g>
     <g id="text_11">
      <!-- 400 -->
      <defs>
       <path d="M 37.796875 64.3125 
L 12.890625 25.390625 
L 37.796875 25.390625 
z
M 35.203125 72.90625 
L 47.609375 72.90625 
L 47.609375 25.390625 
L 58.015625 25.390625 
L 58.015625 17.1875 
L 47.609375 17.1875 
L 47.609375 0 
L 37.796875 0 
L 37.796875 17.1875 
L 4.890625 17.1875 
L 4.890625 26.703125 
z
" id="DejaVuSans-52"/>
      </defs>
      <g transform="translate(27.9125 166.965214)scale(0.1 -0.1)">
       <use xlink:href="#DejaVuSans-52"/>
       <use x="63.623047" xlink:href="#DejaVuSans-48"/>
       <use x="127.246094" xlink:href="#DejaVuSans-48"/>
      </g>
     </g>
    </g>
    <g id="ytick_4">
     <g id="line2d_11">
      <g>
       <use style="stroke:#000000;stroke-width:0.8;" x="54" xlink:href="#m0b8ad30ca2" y="123.591876"/>
      </g>
     </g>
     <g id="text_12">
      <!-- 600 -->
      <defs>
       <path d="M 33.015625 40.375 
Q 26.375 40.375 22.484375 35.828125 
Q 18.609375 31.296875 18.609375 23.390625 
Q 18.609375 15.53125 22.484375 10.953125 
Q 26.375 6.390625 33.015625 6.390625 
Q 39.65625 6.390625 43.53125 10.953125 
Q 47.40625 15.53125 47.40625 23.390625 
Q 47.40625 31.296875 43.53125 35.828125 
Q 39.65625 40.375 33.015625 40.375 
z
M 52.59375 71.296875 
L 52.59375 62.3125 
Q 48.875 64.0625 45.09375 64.984375 
Q 41.3125 65.921875 37.59375 65.921875 
Q 27.828125 65.921875 22.671875 59.328125 
Q 17.53125 52.734375 16.796875 39.40625 
Q 19.671875 43.65625 24.015625 45.921875 
Q 28.375 48.1875 33.59375 48.1875 
Q 44.578125 48.1875 50.953125 41.515625 
Q 57.328125 34.859375 57.328125 23.390625 
Q 57.328125 12.15625 50.6875 5.359375 
Q 44.046875 -1.421875 33.015625 -1.421875 
Q 20.359375 -1.421875 13.671875 8.265625 
Q 6.984375 17.96875 6.984375 36.375 
Q 6.984375 53.65625 15.1875 63.9375 
Q 23.390625 74.21875 37.203125 74.21875 
Q 40.921875 74.21875 44.703125 73.484375 
Q 48.484375 72.75 52.59375 71.296875 
z
" id="DejaVuSans-54"/>
      </defs>
      <g transform="translate(27.9125 127.391094)scale(0.1 -0.1)">
       <use xlink:href="#DejaVuSans-54"/>
       <use x="63.623047" xlink:href="#DejaVuSans-48"/>
       <use x="127.246094" xlink:href="#DejaVuSans-48"/>
      </g>
     </g>
    </g>
    <g id="ytick_5">
     <g id="line2d_12">
      <g>
       <use style="stroke:#000000;stroke-width:0.8;" x="54" xlink:href="#m0b8ad30ca2" y="84.017756"/>
      </g>
     </g>
     <g id="text_13">
      <!-- 800 -->
      <defs>
       <path d="M 31.78125 34.625 
Q 24.75 34.625 20.71875 30.859375 
Q 16.703125 27.09375 16.703125 20.515625 
Q 16.703125 13.921875 20.71875 10.15625 
Q 24.75 6.390625 31.78125 6.390625 
Q 38.8125 6.390625 42.859375 10.171875 
Q 46.921875 13.96875 46.921875 20.515625 
Q 46.921875 27.09375 42.890625 30.859375 
Q 38.875 34.625 31.78125 34.625 
z
M 21.921875 38.8125 
Q 15.578125 40.375 12.03125 44.71875 
Q 8.5 49.078125 8.5 55.328125 
Q 8.5 64.0625 14.71875 69.140625 
Q 20.953125 74.21875 31.78125 74.21875 
Q 42.671875 74.21875 48.875 69.140625 
Q 55.078125 64.0625 55.078125 55.328125 
Q 55.078125 49.078125 51.53125 44.71875 
Q 48 40.375 41.703125 38.8125 
Q 48.828125 37.15625 52.796875 32.3125 
Q 56.78125 27.484375 56.78125 20.515625 
Q 56.78125 9.90625 50.3125 4.234375 
Q 43.84375 -1.421875 31.78125 -1.421875 
Q 19.734375 -1.421875 13.25 4.234375 
Q 6.78125 9.90625 6.78125 20.515625 
Q 6.78125 27.484375 10.78125 32.3125 
Q 14.796875 37.15625 21.921875 38.8125 
z
M 18.3125 54.390625 
Q 18.3125 48.734375 21.84375 45.5625 
Q 25.390625 42.390625 31.78125 42.390625 
Q 38.140625 42.390625 41.71875 45.5625 
Q 45.3125 48.734375 45.3125 54.390625 
Q 45.3125 60.0625 41.71875 63.234375 
Q 38.140625 66.40625 31.78125 66.40625 
Q 25.390625 66.40625 21.84375 63.234375 
Q 18.3125 60.0625 18.3125 54.390625 
z
" id="DejaVuSans-56"/>
      </defs>
      <g transform="translate(27.9125 87.816975)scale(0.1 -0.1)">
       <use xlink:href="#DejaVuSans-56"/>
       <use x="63.623047" xlink:href="#DejaVuSans-48"/>
       <use x="127.246094" xlink:href="#DejaVuSans-48"/>
      </g>
     </g>
    </g>
    <g id="ytick_6">
     <g id="line2d_13">
      <g>
       <use style="stroke:#000000;stroke-width:0.8;" x="54" xlink:href="#m0b8ad30ca2" y="44.443636"/>
      </g>
     </g>
     <g id="text_14">
      <!-- 1000 -->
      <g transform="translate(21.55 48.242855)scale(0.1 -0.1)">
       <use xlink:href="#DejaVuSans-49"/>
       <use x="63.623047" xlink:href="#DejaVuSans-48"/>
       <use x="127.246094" xlink:href="#DejaVuSans-48"/>
       <use x="190.869141" xlink:href="#DejaVuSans-48"/>
      </g>
     </g>
    </g>
    <g id="text_15">
     <!-- cum_count -->
     <defs>
      <path d="M 48.78125 52.59375 
L 48.78125 44.1875 
Q 44.96875 46.296875 41.140625 47.34375 
Q 37.3125 48.390625 33.40625 48.390625 
Q 24.65625 48.390625 19.8125 42.84375 
Q 14.984375 37.3125 14.984375 27.296875 
Q 14.984375 17.28125 19.8125 11.734375 
Q 24.65625 6.203125 33.40625 6.203125 
Q 37.3125 6.203125 41.140625 7.25 
Q 44.96875 8.296875 48.78125 10.40625 
L 48.78125 2.09375 
Q 45.015625 0.34375 40.984375 -0.53125 
Q 36.96875 -1.421875 32.421875 -1.421875 
Q 20.0625 -1.421875 12.78125 6.34375 
Q 5.515625 14.109375 5.515625 27.296875 
Q 5.515625 40.671875 12.859375 48.328125 
Q 20.21875 56 33.015625 56 
Q 37.15625 56 41.109375 55.140625 
Q 45.0625 54.296875 48.78125 52.59375 
z
" id="DejaVuSans-99"/>
      <path d="M 52 44.1875 
Q 55.375 50.25 60.0625 53.125 
Q 64.75 56 71.09375 56 
Q 79.640625 56 84.28125 50.015625 
Q 88.921875 44.046875 88.921875 33.015625 
L 88.921875 0 
L 79.890625 0 
L 79.890625 32.71875 
Q 79.890625 40.578125 77.09375 44.375 
Q 74.3125 48.1875 68.609375 48.1875 
Q 61.625 48.1875 57.5625 43.546875 
Q 53.515625 38.921875 53.515625 30.90625 
L 53.515625 0 
L 44.484375 0 
L 44.484375 32.71875 
Q 44.484375 40.625 41.703125 44.40625 
Q 38.921875 48.1875 33.109375 48.1875 
Q 26.21875 48.1875 22.15625 43.53125 
Q 18.109375 38.875 18.109375 30.90625 
L 18.109375 0 
L 9.078125 0 
L 9.078125 54.6875 
L 18.109375 54.6875 
L 18.109375 46.1875 
Q 21.1875 51.21875 25.484375 53.609375 
Q 29.78125 56 35.6875 56 
Q 41.65625 56 45.828125 52.96875 
Q 50 49.953125 52 44.1875 
z
" id="DejaVuSans-109"/>
      <path d="M 50.984375 -16.609375 
L 50.984375 -23.578125 
L -0.984375 -23.578125 
L -0.984375 -16.609375 
z
" id="DejaVuSans-95"/>
      <path d="M 30.609375 48.390625 
Q 23.390625 48.390625 19.1875 42.75 
Q 14.984375 37.109375 14.984375 27.296875 
Q 14.984375 17.484375 19.15625 11.84375 
Q 23.34375 6.203125 30.609375 6.203125 
Q 37.796875 6.203125 41.984375 11.859375 
Q 46.1875 17.53125 46.1875 27.296875 
Q 46.1875 37.015625 41.984375 42.703125 
Q 37.796875 48.390625 30.609375 48.390625 
z
M 30.609375 56 
Q 42.328125 56 49.015625 48.375 
Q 55.71875 40.765625 55.71875 27.296875 
Q 55.71875 13.875 49.015625 6.21875 
Q 42.328125 -1.421875 30.609375 -1.421875 
Q 18.84375 -1.421875 12.171875 6.21875 
Q 5.515625 13.875 5.515625 27.296875 
Q 5.515625 40.765625 12.171875 48.375 
Q 18.84375 56 30.609375 56 
z
" id="DejaVuSans-111"/>
      <path d="M 54.890625 33.015625 
L 54.890625 0 
L 45.90625 0 
L 45.90625 32.71875 
Q 45.90625 40.484375 42.875 44.328125 
Q 39.84375 48.1875 33.796875 48.1875 
Q 26.515625 48.1875 22.3125 43.546875 
Q 18.109375 38.921875 18.109375 30.90625 
L 18.109375 0 
L 9.078125 0 
L 9.078125 54.6875 
L 18.109375 54.6875 
L 18.109375 46.1875 
Q 21.34375 51.125 25.703125 53.5625 
Q 30.078125 56 35.796875 56 
Q 45.21875 56 50.046875 50.171875 
Q 54.890625 44.34375 54.890625 33.015625 
z
" id="DejaVuSans-110"/>
      <path d="M 18.3125 70.21875 
L 18.3125 54.6875 
L 36.8125 54.6875 
L 36.8125 47.703125 
L 18.3125 47.703125 
L 18.3125 18.015625 
Q 18.3125 11.328125 20.140625 9.421875 
Q 21.96875 7.515625 27.59375 7.515625 
L 36.8125 7.515625 
L 36.8125 0 
L 27.59375 0 
Q 17.1875 0 13.234375 3.875 
Q 9.28125 7.765625 9.28125 18.015625 
L 9.28125 47.703125 
L 2.6875 47.703125 
L 2.6875 54.6875 
L 9.28125 54.6875 
L 9.28125 70.21875 
z
" id="DejaVuSans-116"/>
     </defs>
     <g transform="translate(15.192187 170.674531)rotate(-90)scale(0.1 -0.1)">
      <use xlink:href="#DejaVuSans-99"/>
      <use x="54.980469" xlink:href="#DejaVuSans-117"/>
      <use x="118.359375" xlink:href="#DejaVuSans-109"/>
      <use x="215.771484" xlink:href="#DejaVuSans-95"/>
      <use x="265.771484" xlink:href="#DejaVuSans-99"/>
      <use x="320.751953" xlink:href="#DejaVuSans-111"/>
      <use x="381.933594" xlink:href="#DejaVuSans-117"/>
      <use x="445.3125" xlink:href="#DejaVuSans-110"/>
      <use x="508.691406" xlink:href="#DejaVuSans-116"/>
     </g>
    </g>
   </g>
   <g id="line2d_14">
    <path clip-path="url(#p596c799844)" d="M 69.218182 242.116364 
L 77.978788 241.720622 
L 79.75468 241.522752 
L 88.876369 241.127011 
L 91.854025 240.92914 
L 91.967748 240.731269 
L 93.66022 240.533399 
L 93.849907 240.335528 
L 98.378013 240.137658 
L 100.471196 239.741916 
L 103.046978 239.346175 
L 106.830698 238.356822 
L 107.859181 238.158952 
L 112.515674 237.76321 
L 113.97174 237.56534 
L 114.56091 237.169599 
L 114.579047 236.971728 
L 115.441039 236.773857 
L 115.796285 236.575987 
L 115.826478 236.378116 
L 117.700335 236.180246 
L 118.017538 235.982375 
L 119.138998 235.586634 
L 123.070313 235.388763 
L 123.171003 235.190893 
L 123.501547 234.993022 
L 123.587437 234.795152 
L 125.030277 234.597281 
L 125.080637 234.20154 
L 126.859915 234.003669 
L 126.978113 233.805799 
L 128.330296 233.410057 
L 128.377288 233.212187 
L 129.074844 232.420704 
L 130.125291 232.024963 
L 130.189933 231.827093 
L 130.423767 231.629222 
L 132.455493 231.03561 
L 132.587675 230.83774 
L 133.685737 230.441998 
L 134.584791 230.244128 
L 134.618658 229.848387 
L 135.205145 229.452645 
L 135.242707 229.254775 
L 136.844839 229.056904 
L 136.846804 228.859034 
L 138.676859 228.265422 
L 140.981414 228.067551 
L 141.160211 227.869681 
L 141.61172 227.67181 
L 141.741103 227.276069 
L 142.079829 226.880328 
L 142.456296 226.682457 
L 144.063321 226.484586 
L 144.70415 225.890975 
L 144.998238 225.693104 
L 146.841232 225.297363 
L 147.148734 225.099492 
L 148.049477 224.703751 
L 148.180588 224.50588 
L 148.759281 224.30801 
L 148.95824 223.714398 
L 149.020206 223.516527 
L 149.265121 223.318657 
L 149.293032 223.120786 
L 149.574396 222.922916 
L 149.64906 222.527174 
L 149.998532 222.329304 
L 150.447774 221.735692 
L 150.732573 221.537821 
L 150.77635 221.339951 
L 150.97246 221.14208 
L 151.329108 220.94421 
L 152.003479 220.746339 
L 152.224844 220.548468 
L 152.665765 220.350598 
L 153.101791 219.756986 
L 153.389775 219.559115 
L 153.902868 219.361245 
L 153.915535 219.163374 
L 154.265471 218.767633 
L 154.352453 218.569762 
L 154.606317 218.371892 
L 156.108263 217.77828 
L 156.248027 217.382539 
L 156.72793 216.986798 
L 156.913375 216.393186 
L 157.775986 215.997445 
L 158.865413 214.018739 
L 159.085308 213.425127 
L 159.489764 212.633645 
L 159.719722 212.435774 
L 159.861597 212.040033 
L 160.076565 211.644292 
L 160.113219 211.446421 
L 161.480302 211.05068 
L 161.896779 210.654939 
L 161.930558 210.457068 
L 162.831342 210.259197 
L 163.552492 209.467715 
L 163.973614 209.071974 
L 163.99133 208.874103 
L 164.181108 208.478362 
L 164.596614 207.68688 
L 165.092396 207.291138 
L 165.689352 207.093268 
L 166.582952 206.301785 
L 167.397627 206.103915 
L 167.67028 205.906044 
L 167.731031 205.708174 
L 168.362912 205.510303 
L 168.67692 204.718821 
L 169.428152 204.323079 
L 169.629856 204.125209 
L 169.862486 203.333726 
L 169.979443 202.937985 
L 170.405455 202.740115 
L 170.416281 202.542244 
L 170.555828 202.146503 
L 170.59587 201.948632 
L 170.85951 201.750762 
L 170.893991 201.552891 
L 171.787779 200.959279 
L 171.930238 200.761409 
L 171.985871 200.365667 
L 172.174043 200.167797 
L 172.222034 199.772056 
L 172.667618 199.574185 
L 172.737771 199.376314 
L 173.065684 198.980573 
L 173.737887 197.99122 
L 175.047191 197.595479 
L 175.198439 197.199738 
L 175.511063 197.001867 
L 175.520791 196.803997 
L 176.1256 196.210385 
L 176.131701 196.012514 
L 176.558038 195.616773 
L 176.642328 195.418903 
L 177.54584 194.825291 
L 177.914883 194.62742 
L 178.013173 194.42955 
L 178.627835 194.033808 
L 178.658868 193.835938 
L 179.064405 193.440197 
L 179.191873 193.044455 
L 180.000894 192.846585 
L 180.221869 192.450844 
L 180.937538 192.055102 
L 181.272408 191.857232 
L 181.28916 191.659361 
L 181.636527 191.065749 
L 181.807661 190.274267 
L 182.123632 190.076396 
L 182.212886 189.680655 
L 182.415252 189.482785 
L 182.469725 189.087043 
L 183.649011 186.910467 
L 183.964796 186.712596 
L 184.046963 186.514726 
L 184.407647 186.316855 
L 184.482467 185.921114 
L 185.09436 185.525373 
L 185.650533 185.129631 
L 186.007492 184.53602 
L 186.36946 183.546667 
L 186.727196 183.150925 
L 187.208415 182.557314 
L 187.250892 182.359443 
L 187.846863 181.963702 
L 188.175594 181.765831 
L 188.497515 180.776478 
L 189.105596 180.182867 
L 189.364131 179.589255 
L 189.814752 179.391384 
L 190.215857 178.402031 
L 190.33794 177.808419 
L 190.971156 176.819066 
L 191.233345 176.621196 
L 191.299007 176.423325 
L 191.838646 175.829713 
L 191.854767 175.631843 
L 192.19652 175.433972 
L 192.227053 175.236102 
L 192.593244 175.038231 
L 192.711797 174.84036 
L 193.046681 174.64249 
L 193.120234 174.444619 
L 193.770564 174.048878 
L 193.851673 173.653137 
L 194.187817 173.455266 
L 194.396623 173.059525 
L 194.769275 172.861654 
L 194.775876 172.663784 
L 195.498653 172.268043 
L 196.597484 171.872301 
L 196.713038 171.674431 
L 197.42673 171.27869 
L 197.479636 170.685078 
L 197.707769 170.487207 
L 197.73767 170.091466 
L 198.164607 169.893595 
L 198.484637 169.299984 
L 198.775682 168.508501 
L 199.608515 167.914889 
L 199.629149 167.717019 
L 200.071501 167.519148 
L 200.315997 166.529795 
L 200.919106 165.936183 
L 201.547179 165.738313 
L 201.726499 165.342572 
L 202.091453 164.94683 
L 202.663208 163.759607 
L 202.701164 163.561736 
L 202.930891 163.363866 
L 203.002981 162.968124 
L 203.408854 162.572383 
L 203.447194 162.374513 
L 203.681417 162.176642 
L 203.784293 161.58303 
L 204.100695 161.38516 
L 204.151555 160.989419 
L 205.319839 159.604324 
L 205.452023 159.010713 
L 205.561134 158.812842 
L 205.838581 158.614971 
L 206.173424 157.823489 
L 206.427439 157.427748 
L 206.594743 156.636265 
L 207.117582 156.240524 
L 207.37688 155.646912 
L 207.393742 155.449042 
L 207.682601 155.053301 
L 207.690029 154.85543 
L 208.128107 154.261818 
L 208.586053 153.470336 
L 208.922195 153.074595 
L 209.305852 151.6895 
L 209.321644 151.49163 
L 209.758187 150.898018 
L 209.85712 150.502277 
L 210.005956 150.106536 
L 211.082891 149.710794 
L 211.458048 148.919312 
L 212.332115 148.12783 
L 212.42014 147.732088 
L 212.641752 147.336347 
L 213.527 146.940606 
L 213.97656 146.346994 
L 213.984974 146.149124 
L 214.803001 144.764029 
L 214.928504 144.368288 
L 215.735258 142.587453 
L 215.815909 141.993841 
L 215.982164 141.795971 
L 215.985975 141.5981 
L 216.124054 141.400229 
L 216.126525 141.202359 
L 216.650797 140.410876 
L 216.661967 140.213006 
L 217.17834 139.619394 
L 217.584371 139.025782 
L 217.677042 138.630041 
L 218.113953 137.640688 
L 218.173884 137.442817 
L 218.703597 136.849206 
L 218.828318 136.255594 
L 219.477444 135.464111 
L 219.553889 135.266241 
L 220.209593 135.06837 
L 220.477248 134.474758 
L 220.7157 134.079017 
L 220.798202 133.683276 
L 220.858681 133.287535 
L 221.43322 132.100311 
L 221.786276 131.902441 
L 221.918071 131.506699 
L 222.094963 131.308829 
L 222.572677 131.110958 
L 222.726121 130.715217 
L 222.978108 130.517346 
L 223.730773 130.319476 
L 224.009548 130.121605 
L 224.075461 129.923735 
L 224.397281 129.725864 
L 224.485335 129.330123 
L 225.085892 128.934382 
L 225.106146 128.736511 
L 225.34887 128.34077 
L 225.668773 127.549287 
L 225.922492 126.955676 
L 226.033974 125.966323 
L 226.317937 125.570581 
L 226.992191 125.372711 
L 227.431476 124.383358 
L 227.490793 123.987617 
L 227.704027 123.591876 
L 228.201541 123.394005 
L 228.683099 121.61317 
L 228.815298 121.019558 
L 229.283498 119.832334 
L 229.806478 119.634464 
L 230.05299 118.645111 
L 230.457173 117.853628 
L 230.551489 117.457887 
L 230.876731 117.260016 
L 231.775946 114.885569 
L 231.946604 114.687699 
L 231.953283 114.489828 
L 232.079717 114.291957 
L 232.809399 113.698346 
L 233.037342 113.104734 
L 233.072535 112.708993 
L 233.442638 112.313251 
L 233.55822 111.521769 
L 233.938982 111.126028 
L 233.982773 110.928157 
L 234.166558 110.730287 
L 234.383568 109.938804 
L 234.864385 108.751581 
L 234.870249 108.55371 
L 235.340298 108.157969 
L 235.825852 107.168616 
L 236.55843 106.575004 
L 236.857128 105.981392 
L 237.272892 105.585651 
L 237.334241 105.18991 
L 237.736383 104.398428 
L 238.322848 104.002686 
L 238.470922 103.804816 
L 238.499005 103.409075 
L 238.642929 103.013333 
L 238.680889 102.815463 
L 239.177429 102.419722 
L 239.192814 102.221851 
L 239.391991 101.82611 
L 239.454612 101.628239 
L 239.750312 101.232498 
L 239.884454 101.034627 
L 240.655874 100.836757 
L 240.802082 100.638886 
L 241.338742 100.243145 
L 241.385788 100.045274 
L 242.048101 99.847404 
L 242.099241 99.451663 
L 242.397943 99.253792 
L 242.943614 99.055921 
L 243.213389 98.46231 
L 243.399119 97.868698 
L 243.526491 96.681474 
L 243.771665 96.285733 
L 244.282612 95.692121 
L 244.338263 95.494251 
L 244.550764 95.29638 
L 244.670114 94.900639 
L 245.961317 92.724062 
L 246.087839 92.328321 
L 246.561741 91.338968 
L 247.121033 90.943227 
L 247.164468 90.745356 
L 247.503851 90.547486 
L 247.538879 90.349615 
L 247.800489 89.953874 
L 248.145365 88.76665 
L 248.542564 88.56878 
L 248.581934 88.370909 
L 248.787638 88.173038 
L 248.874591 87.579427 
L 249.041922 87.183686 
L 249.743167 86.590074 
L 249.987793 85.996462 
L 250.581147 85.600721 
L 251.007002 85.40285 
L 251.023703 85.20498 
L 251.392528 85.007109 
L 251.499523 84.611368 
L 251.542519 84.413497 
L 252.585242 84.017756 
L 252.904413 83.424144 
L 253.296735 83.226274 
L 253.45305 82.632662 
L 253.585647 82.434791 
L 254.303258 81.841179 
L 254.398481 81.643309 
L 255.105802 81.049697 
L 255.123456 80.851826 
L 255.291542 80.653956 
L 255.303471 80.456085 
L 255.524595 80.258215 
L 255.645877 79.862473 
L 256.632165 79.466732 
L 256.774083 79.070991 
L 257.205501 78.081638 
L 258.257842 77.290156 
L 258.345527 77.092285 
L 258.892913 76.696544 
L 259.25238 76.498673 
L 259.287235 76.300803 
L 260.607615 75.50932 
L 260.754504 75.31145 
L 261.659669 74.717838 
L 262.464493 74.519967 
L 262.667063 74.322097 
L 262.687953 74.124226 
L 263.072871 73.530614 
L 263.087867 73.332744 
L 264.065766 72.343391 
L 264.217625 71.749779 
L 264.959069 71.551908 
L 265.058974 71.354038 
L 265.302363 71.156167 
L 265.341443 70.958296 
L 265.858562 70.562555 
L 266.167611 69.968943 
L 266.625404 69.573202 
L 266.798071 69.375332 
L 267.602407 69.177461 
L 267.700018 68.97959 
L 268.028447 68.78172 
L 268.058654 68.583849 
L 268.814547 67.792367 
L 269.04505 67.594496 
L 269.074801 67.396626 
L 269.558431 66.605143 
L 269.565346 66.407273 
L 269.913833 66.209402 
L 270.657587 66.011532 
L 270.772446 65.813661 
L 271.679207 65.61579 
L 272.335894 65.022179 
L 273.493637 64.824308 
L 274.073121 63.834955 
L 274.859195 63.241343 
L 275.378205 63.043473 
L 275.722442 62.449861 
L 278.909613 60.866896 
L 279.188868 60.471155 
L 279.192032 60.273284 
L 280.256338 59.877543 
L 280.87473 59.481802 
L 280.997889 59.283931 
L 282.013537 58.88819 
L 282.089727 58.690319 
L 284.349231 58.492449 
L 284.889144 58.294578 
L 285.113586 57.700966 
L 285.977813 57.107355 
L 286.666891 56.909484 
L 286.778015 56.711613 
L 287.484566 56.513743 
L 287.997647 56.118002 
L 288.77395 55.920131 
L 289.066094 55.72226 
L 289.651623 55.52439 
L 290.076735 54.930778 
L 290.186024 54.535037 
L 290.94732 54.139296 
L 292.03015 53.941425 
L 292.707576 53.545684 
L 293.280911 53.347813 
L 294.376278 53.149943 
L 294.562975 52.952072 
L 295.485483 52.754201 
L 297.445774 52.556331 
L 298.019172 52.35846 
L 301.004132 51.962719 
L 301.315316 51.566978 
L 302.698636 51.171237 
L 303.582529 50.973366 
L 303.697925 50.775495 
L 303.960183 50.577625 
L 306.954856 50.379754 
L 308.525918 49.786143 
L 314.403333 48.401048 
L 314.422612 48.203178 
L 314.59786 48.005307 
L 315.296874 47.807437 
L 317.02398 47.411695 
L 322.5584 47.213825 
L 324.204934 46.818084 
L 324.469639 46.620213 
L 324.510556 46.422342 
L 326.245235 46.224472 
L 326.315288 46.026601 
L 326.698988 45.828731 
L 329.986776 45.235119 
L 330.613697 45.037248 
L 336.58243 44.839378 
L 365.574712 44.641507 
L 373.581818 44.443636 
L 373.581818 44.443636 
" style="fill:none;stroke:#1f77b4;stroke-linecap:square;stroke-width:1.5;"/>
   </g>
   <g id="patch_3">
    <path d="M 54 252 
L 54 34.56 
" style="fill:none;stroke:#000000;stroke-linecap:square;stroke-linejoin:miter;stroke-width:0.8;"/>
   </g>
   <g id="patch_4">
    <path d="M 388.8 252 
L 388.8 34.56 
" style="fill:none;stroke:#000000;stroke-linecap:square;stroke-linejoin:miter;stroke-width:0.8;"/>
   </g>
   <g id="patch_5">
    <path d="M 54 252 
L 388.8 252 
" style="fill:none;stroke:#000000;stroke-linecap:square;stroke-linejoin:miter;stroke-width:0.8;"/>
   </g>
   <g id="patch_6">
    <path d="M 54 34.56 
L 388.8 34.56 
" style="fill:none;stroke:#000000;stroke-linecap:square;stroke-linejoin:miter;stroke-width:0.8;"/>
   </g>
  </g>
 </g>
 <defs>
  <clipPath id="p596c799844">
   <rect height="217.44" width="334.8" x="54" y="34.56"/>
  </clipPath>
 </defs>
</svg>
